<?xml version="1.0" standalone="no"?>
<!DOCTYPE svg PUBLIC "-//W3C//DTD SVG 1.1//EN" "http://www.w3.org/Graphics/SVG/1.1/DTD/svg11.dtd" >
<!--
2013-9-30: Created.
-->
<svg>
<metadata>
Created by iconfont
</metadata>
<defs>

<font id="iconfont" horiz-adv-x="1024" >
  <font-face
    font-family="iconfont"
    font-weight="500"
    font-stretch="normal"
    units-per-em="1024"
    ascent="896"
    descent="-128"
  />
    <missing-glyph />
    
    <glyph glyph-name="x" unicode="x" horiz-adv-x="1001"
d="M281 543q-27 -1 -53 -1h-83q-18 0 -36.5 -6t-32.5 -18.5t-23 -32t-9 -45.5v-76h912v41q0 16 -0.5 30t-0.5 18q0 13 -5 29t-17 29.5t-31.5 22.5t-49.5 9h-133v-97h-438v97zM955 310v-52q0 -23 0.5 -52t0.5 -58t-10.5 -47.5t-26 -30t-33 -16t-31.5 -4.5q-14 -1 -29.5 -0.5
t-29.5 0.5h-32l-45 128h-439l-44 -128h-29h-34q-20 0 -45 1q-25 0 -41 9.5t-25.5 23t-13.5 29.5t-4 30v167h911zM163 247q-12 0 -21 -8.5t-9 -21.5t9 -21.5t21 -8.5q13 0 22 8.5t9 21.5t-9 21.5t-22 8.5zM316 123q-8 -26 -14 -48q-5 -19 -10.5 -37t-7.5 -25t-3 -15t1 -14.5
t9.5 -10.5t21.5 -4h37h67h81h80h64h36q23 0 34 12t2 38q-5 13 -9.5 30.5t-9.5 34.5q-5 19 -11 39h-368zM336 498v228q0 11 2.5 23t10 21.5t20.5 15.5t34 6h188q31 0 51.5 -14.5t20.5 -52.5v-227h-327z" />
    

    
    <glyph glyph-name="ico12" unicode="&#58881;" d="M56.888889-212l0 37.925926 910.222222 0 0-37.925926L56.888889-212M701.62963-140.357926 606.814815-140.357926 606.814815 400.086519 472.064 501.159111 189.62963 359.922963 189.62963-140.357926 56.888889-140.357926 56.888889-102.432 151.703704-102.432 151.703704 383.323259 476.084148 545.532444 644.740741 419.049481 644.740741-102.432 701.62963-102.432ZM246.518519 318.962963l151.703704 75.851852 0-99.555556L246.518519 243.111111 246.518519 318.962963zM246.518519 167.259259l151.703704 52.148148L398.222222 129.333333l-151.703704-45.814519L246.518519 167.259259zM246.518519 15.555556l151.703704 37.925926 0-113.777778-151.703704-14.222222L246.518519 15.555556zM768 718.778074l0-859.136 59.809185 0L827.809185 642.736593 768 718.778074zM474.074074 440.439704l0-580.79763 75.851852 0L549.925926 380.592593 474.074074 440.439704zM967.111111-140.357926 872.296296-140.357926 872.296296 630.789926 771.147852 765.616593 341.333333 586.568296 341.333333 507.416889 303.407407 485.419852 303.407407 611.826963 783.815111 812 910.222222 643.457185 910.222222-102.432 967.111111-102.432Z"  horiz-adv-x="1024" />

    
    <glyph glyph-name="add2" unicode="&#58904;" d="M15.753846 796.246154 15.753846 796.246154 15.753846 796.246154ZM1007.836554 326.056862 553.7792 326.056862 553.7792 780.082708l-68.088123 0 0-454.025846L31.665231 326.056862l0-68.088123c0 0 228.115692 0 454.025846 0l0-454.057354 68.088123 0L553.7792 257.968738c225.910154 0 454.057354 0 454.057354 0L1007.836554 326.056862z"  horiz-adv-x="1024" />

    
    <glyph glyph-name="tel" unicode="&#58982;" d="M659.4574 219.999832c-22.947641 22.195511-67.851341 59.413158-110.292965 59.443857-14.174837 0-27.27111-4.086062-38.055734-11.867282l-27.059286-19.584034c-42.382273 9.014304-85.842087 45.956681-116.747981 99.509365-30.965246 53.552683-41.238216 109.627816-27.90249 150.835334l30.484292 13.699c38.867216 17.47807 51.481512 67.700915 35.653011 141.526317C392.771525 712.97043 349.432461 825.275215 276.41547 825.275215c-7.030114 0-14.118556-1.113357-20.846794-3.304256L203.939809 805.270603c-44.24162-14.353916-77.553307-51.476395-86.954421-96.952122-27.691689-133.418662 7.028067-297.562093 95.243201-450.353988 88.272439-152.757103 213.161844-264.880763 342.495468-307.530119 13.155624-4.295839 26.789133-6.517437 40.605813-6.517437 32.138978 0 63.015196 11.83249 86.830601 33.337269l40.250726 36.344766c14.294564 12.881378 35.110659 42.769083 13.812587 98.155531C723.370035 145.212522 693.999101 186.692239 659.4574 219.999832L659.4574 219.999832zM693.065845 46.124759l-40.246633-36.341696c-15.768125-14.238282-36.254715-22.075785-57.489342-22.075785-9.129938 0-18.169825 1.439792-26.853601 4.322445-119.359458 39.34817-235.384985 144.262638-318.343395 287.860127-82.900082 143.570883-115.845425 296.513204-90.2597 419.538145 6.247284 30.093389 28.266787 54.6906 57.548694 64.181765l51.602262 16.761756c2.463098 0.751107 4.894474 1.143033 7.390317 1.143033 34.059724 0 72.14411-70.886467 86.348624-137.143497 10.42442-48.504714 6.126534-84.759429-10.749832-92.419899l-46.347584-20.783349-1.169639-2.432399c-25.740244-54.124711-16.219403-131.97887 24.869411-203.131397 41.11849-71.215972 103.770412-118.340245 163.540703-123.084293l2.702552-0.209778 41.148166 29.761837c3.304256 2.406816 7.330966 3.574409 12.404518 3.574409 40.702004-0.029676 122.667807-78.270645 146.183384-139.545196C701.624778 79.887724 706.312544 58.021717 693.065845 46.124759L693.065845 46.124759zM693.065845 46.124759M841.922105 595.084533c-48.14758 94.881974-130.354883 165.31614-231.544517 198.352557-2.161223 0.722454-4.476965 1.113357-6.788613 1.113357-9.491165 0-17.838274-6.066159-20.782326-15.111163-3.725858-11.441587 2.552126-23.815405 14.024411-27.570939 90.047876-29.40675 163.244968-92.119047 206.043726-176.547948 42.922578-84.458577 50.308803-180.543959 20.907169-270.587742-3.755534-11.476379 2.552126-23.851221 14.054087-27.576055 2.13564-0.721431 4.417613-1.107217 6.758937-1.107217 9.491165 0 17.898649 6.066159 20.842701 15.106046C898.448516 392.284687 890.068661 500.203582 841.922105 595.084533L841.922105 595.084533zM841.922105 595.084533M569.379848 667.740296c-2.190899 0.691755-4.477988 1.078565-6.819313 1.078565-9.490142 0-17.899672-6.067182-20.782326-15.108093-3.755534-11.441587 2.552126-23.845081 13.994736-27.570939 56.409754-18.380626 102.241592-57.729819 129.154545-110.770849 26.909883-53.042053 31.658024-113.263623 13.152555-169.607886-3.720741-11.476379 2.585895-23.851221 14.058181-27.635407 2.220574-0.687662 4.503571-1.048889 6.818289-1.048889 9.491165 0 17.868973 6.067182 20.783349 15.07637 22.01541 67.49216 16.429181 139.575896-15.768125 203.010647C691.712011 598.629265 636.809587 645.694187 569.379848 667.740296L569.379848 667.740296zM569.379848 667.740296M514.712785 500.473735c47.275723-15.468296 73.107041-66.439178 57.669444-113.684202-3.725858-11.44568 2.582825-23.820522 14.058181-27.604708 2.191922-0.687662 4.473895-1.078565 6.758937-1.078565 9.516748 0 17.899672 6.096858 20.842701 15.107069 22.947641 70.162989-15.557324 145.912208-85.721337 168.859849-2.161223 0.717338-4.477988 1.109264-6.819313 1.109264-9.491165 0-17.838274-6.067182-20.813025-15.07637C496.964562 516.573411 503.242546 504.194476 514.712785 500.473735L514.712785 500.473735zM514.712785 500.473735"  horiz-adv-x="1024" />

    
    <glyph glyph-name="city" unicode="&#58882;" d="M512 896C283.092978 896 97.52497 710.431992 97.52497 481.52497S512-128 512-128s414.47503 380.617948 414.47503 609.52497S740.907022 896 512 896zM512-54.850179c0 0-365.700357 319.972578-365.700357 527.088217C146.275268 679.329303 310.027517 847.225327 512 847.225327c201.972483 0 365.700357-167.896025 365.700357-374.987289C877.700357 265.122399 512-54.850179 512-54.850179zM512 652.199762c-94.2587 0-170.650417-76.416091-170.650417-170.674792s76.416091-170.674792 170.650417-170.674792c94.283075 0 170.650417 76.416091 170.650417 170.674792S606.283075 652.199762 512 652.199762zM512 359.624851c-67.324161 0-121.900119 54.575958-121.900119 121.900119s54.575958 121.900119 121.900119 121.900119c67.324161 0 121.875744-54.575958 121.875744-121.900119S579.324161 359.624851 512 359.624851z"  horiz-adv-x="1024" />

    
    <glyph glyph-name="email" unicode="&#59003;" d="M861.658611 19.114592 164.03803 19.114592c-56.431244 0-102.340853 45.911656-102.340853 102.345969l0 518.621814c0 56.43329 45.910633 102.345969 102.340853 102.345969L861.658611 742.428346c31.7931 0 53.361325-9.448186 64.100924-28.083615 11.435447-19.834744 7.302313-42.0937-11.340279-61.066821l-11.351536-11.55722 0.001023-0.001023c-0.045025-0.045025-0.601704-0.61296-1.64957-1.679245-0.103354-0.106424-0.205685-0.209778-0.305969-0.312108l-30.90487-31.462572c-0.024559-0.024559-0.050142-0.050142-0.073678-0.074701-27.242458-27.733645-70.074985-71.338768-123.530454-125.759215L619.241466 352.770741c-26.452465-26.931373-52.902884-53.858652-79.356372-80.785931l-6.842849-6.969739c-3.352351-3.415796-7.936763-5.339612-12.721743-5.339612-0.008186 0-0.016373 0-0.023536 0-4.79419 0.007163-9.381671 1.943258-12.729929 5.373381l-354.881566 363.519294c-6.876618 7.04444-6.740518 18.329461 0.302899 25.206078 7.04444 6.877641 18.329461 6.741541 25.206078-0.302899l342.16494-350.493629c24.486694 24.925692 48.969295 49.848315 73.448826 74.772984l295.180859 300.509215c10.350742 10.534937 7.335059 15.766079 5.885034 18.279319-3.749394 6.507204-15.85613 10.238179-33.215496 10.238179L164.03803 706.777381c-36.774555 0-66.691935-29.919427-66.691935-66.696028l0-518.621814c0-36.775578 29.91738-66.696028 66.691935-66.696028L861.658611 54.76351c36.775578 0 66.696028 29.919427 66.696028 66.696028L928.35464 571.124841c-0.01535 3.1569 0.242524 47.771003 25.434276 88.073918 5.216815 8.347109 16.21531 10.885931 24.562419 5.66707 8.347109-5.217838 10.884908-16.214287 5.66707-24.562419-19.908422-31.851429-20.016893-68.64645-20.015869-69.013817 0.001023-0.055259 0.001023-0.058328 0.001023-0.113587l0-449.715445C964.004581 65.026248 918.092925 19.114592 861.658611 19.114592z"  horiz-adv-x="1024" />

    
    <glyph glyph-name="guimo" unicode="&#58941;" d="M899.948171 282.024467 899.948171 282.024467c-27.733645 27.735691-60.631916 48.428989-96.526427 61.187571 18.926048 9.391904 36.413328 21.900799 51.794643 37.284161 37.152155 37.154201 57.614186 86.549192 57.614186 139.092895 0 52.541657-20.462031 101.942787-57.614186 139.093918-37.159318 37.155225-86.557378 57.614186-139.098012 57.614186-42.308595 0-82.559321-13.286608-116.03883-37.844933 6.347568-9.69071 12.109806-19.797905 17.147542-30.322609 27.398 21.129226 61.693084 33.738405 98.893334 33.738405 89.484034 0 162.277944-72.79698 162.277944-162.277944 0-85.057211-65.776076-155.031912-149.137669-161.745824-4.363378 0.213871-8.741082 0.323365-13.148461 0.323365-4.399193 0-8.777921-0.109494-13.143345-0.323365-37.4571 3.015683-71.336722 18.838044-97.322559 43.029002-5.987365-9.987468-12.642948-19.515473-19.866467-28.576849 13.151531-11.664667 27.595498-21.425985 43.029002-29.083385-25.058722-8.90788-48.613184-21.767769-70.013587-38.110993l29.857005-20.776186c33.624818 23.127743 72.799026 36.604686 114.077152 39.003316 4.433986-0.294712 8.894577-0.457418 13.383822-0.457418 4.486174 0 8.947789 0.162706 13.384845 0.457418 55.204299-3.209088 106.668415-26.225291 146.099473-65.659419 40.290635-40.286542 63.450101-93.140307 65.841567-149.723l34.452673 0C973.480908 173.736159 946.738847 235.234815 899.948171 282.024467zM590.143675 253.114476c-31.94634 31.94634-69.848443 55.78198-111.192412 70.482013 21.805216 10.816666 41.943362 25.225897 59.658352 42.942685 42.797983 42.791787 66.363805 99.695606 66.363805 160.219971 0 60.522766-23.566022 117.426985-66.363805 160.222969-42.797783 42.795385-99.695207 66.366404-160.22097 66.366404-60.522766 0-117.427184-23.568421-160.223968-66.366404-42.797983-42.795984-66.367803-99.698205-66.367803-160.222969 0-60.525764 23.57002-117.428983 66.367803-160.219971 17.71399-17.716988 37.853335-32.126218 59.658352-42.942685-41.344768-14.700033-79.244073-38.535873-111.193411-70.482013-53.902254-53.903254-84.699374-124.73503-87.481488-200.511453l598.476633 0c-2.781114 75.776424-33.58423 146.6082-87.487483 200.511453L590.143675 253.114476z"  horiz-adv-x="1024" />

    
    <glyph glyph-name="content" unicode="&#58969;" d="M268.299629 708.848553l-22.103414-59.044768-59.044768 0 47.993061-36.941354-22.103414-66.514903 55.360865 40.625256 55.360865-40.625256-22.103414 66.514903 47.993061 36.941354-59.044768 0L268.299629 708.848553zM268.299629 465.199347l-22.103414-59.044768-59.044768 0 47.993061-36.941354-22.103414-66.514903 55.360865 40.625256 55.360865-40.625256-22.103414 66.514903 47.993061 36.941354-59.044768 0L268.299629 465.199347zM290.505373 162.505373l-22.103414 59.044768-22.103414-59.044768-59.044768 0 47.993061-36.941354-22.103414-66.412572 55.360865 40.625256 55.360865-40.625256-22.103414 66.412572 47.993061 36.941354L290.505373 162.505373zM877.473809 830.724321l-730.947618 0c-44.820811 0-81.250512-36.32737-81.250512-81.250512l0-730.947618c0-44.923142 36.32737-81.250512 81.250512-81.250512l730.947618 0c44.820811 0 81.250512 36.32737 81.250512 81.250512l0 730.947618C958.724321 794.29462 922.29462 830.724321 877.473809 830.724321M918.099065 18.526191c0-22.410406-18.21485-40.625256-40.625256-40.625256l-730.947618 0c-22.410406 0-40.625256 18.21485-40.625256 40.625256l0 730.947618c0 22.410406 18.11252 40.625256 40.625256 40.625256l730.947618 0c22.410406 0 40.625256-18.21485 40.625256-40.625256L918.099065 18.526191 918.099065 18.526191zM816.58709 647.859503l-365.524974 0c-11.256368 0-20.261463-9.107425-20.261463-20.261463 0-11.256368 9.107425-20.261463 20.261463-20.261463l365.524974 0c11.256368 0 20.261463 9.107425 20.261463 20.261463C836.848553 638.854409 827.741128 647.859503 816.58709 647.859503M816.58709 160.663422l-365.524974 0c-11.256368 0-20.261463-9.107425-20.261463-20.363793s9.107425-20.261463 20.261463-20.261463l365.524974 0c11.256368 0 20.261463 9.107425 20.261463 20.261463C836.848553 151.555997 827.741128 160.663422 816.58709 160.663422M816.58709 404.210297l-365.524974 0c-11.256368 0-20.261463-9.107425-20.261463-20.261463 0-11.256368 9.107425-20.261463 20.261463-20.261463l365.524974 0c11.256368 0 20.261463 9.107425 20.261463 20.261463C836.848553 395.205203 827.741128 404.210297 816.58709 404.210297"  horiz-adv-x="1024" />

    
    <glyph glyph-name="job" unicode="&#58927;" d="M394.511311 495.538891c-103.288503 0-187.299659-83.693833-187.299659-186.506353 0-11.185621 9.043694-20.229315 20.229315-20.229315s20.229315 9.043694 20.229315 20.229315c0 80.520607 65.844438 146.047722 146.841029 146.047722s146.841029-65.527115 146.841029-146.047722c0-11.185621 9.043694-20.229315 20.229315-20.229315 11.185621 0 20.229315 9.043694 20.229315 20.229315C581.81097 411.845057 497.799814 495.538891 394.511311 495.538891zM792.354509 419.064146c0 11.185621-9.043694 20.229315-20.229315 20.229315L604.340874 439.293461c-11.185621 0-20.229315-9.043694-20.229315-20.229315s9.043694-20.229315 20.229315-20.229315l167.704989 0C783.231484 398.834831 792.354509 407.878525 792.354509 419.064146zM905.004029 791.204214c0 49.740316-40.617292 90.198946-90.516269 90.198946L204.59374 881.403161c-49.978308 0-90.5956-40.45863-90.5956-90.198946L113.998141 205.506043c0-49.740316 40.617292-90.198946 90.5956-90.198946l370.870778 0c11.502944 0 20.86396 9.361016 20.86396 20.86396 0 11.502944-9.361016 20.86396-20.86396 20.86396L204.59374 157.035017c-26.97242 0-48.867679 21.815928-48.867679 48.550356L155.726061 791.204214c0 26.734428 21.895259 48.550356 48.867679 48.550356l609.894019 0c26.97242 0 48.867679-21.815928 48.867679-48.550356L863.355438 205.506043c0-26.734428-21.895259-48.550356-48.867679-48.550356-11.502944 0-20.86396-9.361016-20.86396-20.86396 0-11.502944 9.361016-20.86396 20.86396-20.86396 49.898977 0 90.516269 40.45863 90.516269 90.198946L905.004029 791.204214 905.004029 791.204214zM604.340874 614.614193l167.704989 0c11.185621 0 20.229315 9.043694 20.229315 20.229315s-9.043694 20.229315-20.229315 20.229315L604.340874 655.072823c-11.185621 0-20.229315-9.043694-20.229315-20.229315S593.155253 614.614193 604.340874 614.614193zM494.705919 620.881314c0 55.055469-44.980477 99.877285-100.194608 99.877285-55.293461 0-100.273939-44.821816-100.273939-99.877285s44.980477-99.877285 100.273939-99.877285C449.725442 521.004029 494.705919 565.825844 494.705919 620.881314zM334.696002 620.881314c0 32.763557 26.813759 59.339324 59.735978 59.339324 32.922219 0 59.735978-26.655098 59.735978-59.339324s-26.813759-59.339324-59.735978-59.339324C361.509761 561.541989 334.696002 588.117756 334.696002 620.881314z"  horiz-adv-x="1024" />

    
    <glyph glyph-name="time" unicode="&#58906;" d="M424.448 518.736842c2.263579 0 4.311579-0.619789 6.386526-1.266526 12.557474 9.566316 25.707789 18.378105 39.343158 26.489263-11.910737 11.021474-27.998316 17.866105-45.729684 17.866105-36.783158 0-66.640842-28.941474-66.640842-64.673684 0-13.635368 4.392421-26.246737 11.802947-36.648421 10.374737 11.829895 21.557895 22.959158 33.199158 33.549474-0.161684 1.050947-0.619789 1.994105-0.619789 3.072C402.243368 509.116632 412.186947 518.736842 424.448 518.736842zM91.378526 22.932211c-24.522105 0-44.409263 19.294316-44.409263 43.115789l0 646.736842c0 23.821474 19.887158 43.142737 44.409263 43.142737l44.382316 0 0-32.336842c0-35.732211 29.830737-64.673684 66.640842-64.673684s66.613895 28.941474 66.613895 64.673684l0 32.336842 88.818526 0 0-32.336842c0-35.732211 29.830737-64.673684 66.613895-64.673684 36.783158 0 66.640842 28.941474 66.640842 64.673684l0 32.336842 88.818526 0 0-32.336842c0-35.732211 29.803789-64.673684 66.613895-64.673684s66.640842 28.941474 66.640842 64.673684l0 32.336842 44.382316 0c24.522105 0 44.409263-19.321263 44.409263-43.142737l0-122.610526c15.144421-4.015158 29.965474-8.704 44.382316-14.255158L846.336 712.757895c0 47.642947-39.774316 86.231579-88.818526 86.231579l-44.382316 0 0 32.336842C713.108211 867.058526 683.250526 896 646.467368 896s-66.613895-28.914526-66.613895-64.646737l0-32.336842-88.818526 0 0 32.336842C491.061895 867.058526 461.204211 896 424.448 896c-36.783158 0-66.640842-28.914526-66.640842-64.646737l0-32.336842L268.988632 799.016421l0 32.336842C268.988632 867.058526 239.184842 896 202.401684 896S135.760842 867.085474 135.760842 831.353263l0-32.336842L91.378526 799.016421c-49.044211 0-88.818526-38.615579-88.818526-86.231579l0-646.736842c0-47.616 39.774316-86.231579 88.818526-86.231579l241.286737 0c-8.865684 13.877895-16.896 28.240842-24.064 43.142737L91.378526 22.959158zM624.316632 831.353263c0 11.883789 9.916632 21.557895 22.177684 21.557895s22.204632-9.647158 22.204632-21.557895l0-107.789474c0-11.910737-9.943579-21.557895-22.204632-21.557895s-22.177684 9.620211-22.177684 21.557895L624.316632 831.353263zM402.243368 831.353263c0 11.883789 9.943579 21.557895 22.204632 21.557895 12.234105 0 22.177684-9.647158 22.177684-21.557895l0-107.789474c0-11.910737-9.943579-21.557895-22.177684-21.557895-12.261053 0-22.204632 9.620211-22.204632 21.557895L402.243368 831.353263zM180.197053 831.353263c0 11.883789 9.943579 21.557895 22.204632 21.557895s22.204632-9.647158 22.204632-21.557895l0-107.789474c0-11.910737-9.943579-21.557895-22.204632-21.557895s-22.204632 9.620211-22.204632 21.557895L180.197053 831.353263zM690.930526 518.736842c-183.942737 0-333.069474-144.788211-333.069474-323.368421s149.126737-323.368421 333.069474-323.368421S1024 16.788211 1024 195.368421 874.873263 518.736842 690.930526 518.736842zM690.930526-84.857263c-159.420632 0-288.660211 125.466947-288.660211 280.225684 0 154.785684 129.239579 280.252632 288.660211 280.252632S979.590737 350.154105 979.590737 195.368421C979.590737 40.609684 850.351158-84.857263 690.930526-84.857263zM224.606316 561.879579c-36.783158 0-66.640842-28.941474-66.640842-64.673684 0-35.705263 29.830737-64.646737 66.640842-64.646737 36.756211 0 66.613895 28.941474 66.613895 64.646737S261.389474 561.879579 224.606316 561.879579zM224.606316 475.621053c-12.261053 0-22.204632 9.647158-22.204632 21.557895 0 11.910737 9.943579 21.557895 22.204632 21.557895 12.234105 0 22.177684-9.620211 22.177684-21.557895C246.784 485.295158 236.840421 475.621053 224.606316 475.621053zM890.772211 216.953263 753.448421 216.953263c-6.682947 18.297263-21.530947 32.660211-40.340211 39.154526L713.108211 389.389474c0 11.910737-9.943579 21.557895-22.204632 21.557895s-22.204632-9.620211-22.204632-21.557895l0-133.281684c-25.815579-8.919579-44.409263-32.633263-44.409263-60.739368 0-35.678316 29.830737-64.646737 66.640842-64.646737 28.968421 0 53.328842 18.054737 62.517895 43.115789l137.350737 0c12.261053 0 22.204632 9.647158 22.204632 21.557895C912.976842 207.279158 903.033263 216.953263 890.772211 216.953263zM690.930526 173.810526c-12.261053 0-22.204632 9.647158-22.204632 21.557895 0 11.910737 9.943579 21.584842 22.204632 21.584842s22.204632-9.647158 22.204632-21.584842C713.135158 183.484632 703.191579 173.810526 690.930526 173.810526zM224.606316 324.742737c-36.783158 0-66.640842-28.941474-66.640842-64.673684 0-35.705263 29.830737-64.673684 66.640842-64.673684 17.542737 0 33.387789 6.736842 45.325474 17.515789 1.212632 27.540211 5.146947 54.325895 11.668211 80.168421C269.985684 311.942737 248.885895 324.742737 224.606316 324.742737zM224.606316 238.511158c-12.261053 0-22.204632 9.620211-22.204632 21.557895s9.943579 21.557895 22.204632 21.557895c12.234105 0 22.177684-9.620211 22.177684-21.557895S236.840421 238.511158 224.606316 238.511158z"  horiz-adv-x="1024" />

    
    <glyph glyph-name="gongzichaxun" unicode="&#58903;" d="M510.272-85.188c-286.985 0-414.967 97.828-414.967 317.215 0 174.226 138.304 364.044 308.282 423.141l216.577-0.537c167.607-58.838 305.061-248.516 305.074-422.603 0-219.387-127.982-317.215-414.967-317.215zM409.599 602.524c-32.246-12.532-63.74-30.622-93.699-53.796-33.069-25.629-62.764-56.223-88.26-90.931-25.594-34.862-45.637-72.081-59.556-110.611-14.129-39.088-21.284-77.834-21.284-115.158 0-47.484 6.681-88.218 19.889-121.064 12.594-31.41 31.214-56.536 56.933-76.823 27.477-21.653 64.118-38.314 108.93-49.521 48.621-12.148 108.414-18.313 177.719-18.313s129.098 6.165 177.719 18.313c44.841 11.221 81.496 27.881 108.93 49.521 25.719 20.307 44.354 45.434 56.947 76.823 13.194 32.853 19.875 73.587 19.875 121.064 0 37.351-7.169 76.098-21.297 115.165-13.878 38.475-33.921 75.686-59.542 110.603-25.468 34.702-55.162 65.295-88.26 90.931-29.988 23.187-61.466 41.271-93.574 53.74l-0.698 0.273-199.101 0.398-1.674-0.614zM501.234 77.497c-19.512 0-35.399 15.873-35.399 35.392 0 2.246 0.237 4.539 0.711 6.828l2.357 11.758h-2.916v36.396l-82.136 0.049c-14.588 0-26.459 11.792-26.459 26.298 0 14.533 11.827 26.354 26.347 26.354h8.786l0.014 0.097h73.447v55.623l-81.954 0.049c-14.742 0.007-26.64 11.813-26.64 26.333 0 14.527 11.827 26.34 26.347 26.34h8.424l0.014 0.070h65.274l1.897 7.364c0.279 1.116 0.697 2.009 1.353 2.852l5.342 6.743-87.283 87.27c-2.762 2.754-3.682 7.21-2.581 12.546 1.213 5.941 4.715 12.058 9.862 17.212 6.416 6.409 14.422 10.231 21.438 10.231 3.515 0 6.388-1.012 8.299-2.929l86.488-86.496 80.351 85.672c2.817 3.061 7.182 4.729 12.33 4.729 7.908 0 16.249-3.648 22.316-9.763 13.501-13.648 15.050-20.258 6.862-29.484l-86.572-88.476-1.158-5.606-1.646-8.878 9.191-2.671 74.604-0.39c14.701-0.112 26.528-11.932 26.528-26.347 0-14.407-11.743-26.208-26.18-26.298l-3.78-0.077-78.957 0.007v-55.623h80.91l1.367-0.098c14.797-0.119 26.64-11.933 26.64-26.34 0-14.415-11.758-26.221-26.193-26.312l-82.723-0.049v-41.995l-0.293-0.669-0.098-4.093c0.572-3.466 0.851-5.816 0.851-8.222 0.004-19.522-15.869-35.394-35.382-35.394zM407.116 699.039l-66.836 100.402-0.126 3.863c-0.642 3.285-0.935 4.61-0.935 5.648 0 9.637 4.616 18.034 11.758 21.402l2.664 2.19c9.415 2.169 90.366 20.329 156.714 20.642h1.952c64.563 0 135.486-15.942 153.563-20.273l0.418-0.969 3.362-1.611c7.099-3.368 11.675-11.758 11.675-21.382 0-1.073-0.335-2.462-0.669-3.934l-0.627-2.734 0.711-3.355-67.213-99.893h-206.409zM510.622 801.708c-24.589-0.132-54.13-2.908-87.814-8.271l-15.064-2.399 26.975-40.517h151.205l27.281 40.943-15.022 2.448c-32.093 5.175-60.978 7.796-85.875 7.796h-1.687z"  horiz-adv-x="1024" />

    
    <glyph glyph-name="zhuanye" unicode="&#59085;" d="M823.135201 836.270626H184.788776c-38.135633 0-69.173693-31.03806-69.173693-69.182908v-760.216424c0-38.144848 31.03806-69.182908 69.173693-69.182907H823.135201c38.154063 0 69.192122 31.03806 69.192122 69.182907V767.087718c0 38.145872-31.03806 69.182908-69.192122 69.182908zM485.277617 798.901883v-376.540995l-91.635689 90.285184a18.649047 18.649047 0 0 1-13.119043 5.37335 18.676692 18.676692 0 0 1-12.700273-4.971987l-92.037052-85.212856V798.901883h209.492057z m-300.488841 0h53.627017v-413.828851c0-7.42624 4.397587-14.150095 11.203354-17.124482a18.64188 18.64188 0 0 1 20.180779 3.41261l110.320573 102.136656 110.721935-109.088838a18.701265 18.701265 0 0 1 13.119042-5.37335c2.426608 0 4.890076 0.474059 7.207129 1.450846a18.679764 18.679764 0 0 1 11.476731 17.234037V798.901883H823.135201c17.55349 0 31.822356-14.268866 31.822356-31.813141v-691.024301H184.788776c-11.524853 0-22.235718-3.10442-31.803926-8.113268V767.087718c0 17.544275 14.268866 31.814165 31.803926 31.814165zM854.957557 6.871294c0-17.544275-14.268866-31.813141-31.822356-31.813141H184.788776c-17.53506 0-31.803926 14.268866-31.803926 31.813141s14.268866 31.822356 31.803926 31.822356H854.957557v-31.822356z"  horiz-adv-x="1024" />

    
    <glyph glyph-name="company" unicode="&#58962;" d="M937.521622 32.688563h-43.003184V473.273585c0 40.476235-32.929176 73.405411-73.405411 73.405411H621.141056V708.76721c0 40.476235-32.929176 73.405411-73.40541 73.405411H169.293295c-40.476235 0-73.405411-32.929176-73.40541-73.405411v-676.078647h-12.286624c-8.481866 0-15.35828-6.876414-15.35828-15.35828s6.876414-15.35828 15.35828-15.35828h853.920361c8.481866 0 15.35828 6.876414 15.358279 15.35828s-6.876414 15.35828-15.358279 15.35828z m-810.917178 0V708.76721c0 23.539124 19.149727 42.688851 42.688851 42.688851h378.442351c23.539124 0 42.688851-19.149727 42.68885-42.688851v-676.078647h-463.820052z m494.536612 0v483.273873h199.971971c23.539124 0 42.688851-19.149727 42.688851-42.688851v-440.585022h-242.660822zM204.419729 561.013391h105.460188c8.481866 0 15.35828 6.876414 15.35828 15.358279s-6.876414 15.35828-15.35828 15.35828h-105.460188c-8.481866 0-15.35828-6.876414-15.35828-15.35828s6.876414-15.35828 15.35828-15.358279zM204.419729 376.714032h105.460188c8.481866 0 15.35828 6.876414 15.35828 15.35828s-6.876414 15.35828-15.35828 15.35828h-105.460188c-8.481866 0-15.35828-6.876414-15.35828-15.35828s6.876414-15.35828 15.35828-15.35828zM408.172909 561.013391h105.460188c8.481866 0 15.35828 6.876414 15.35828 15.358279s-6.876414 15.35828-15.35828 15.35828h-105.460188c-8.481866 0-15.35828-6.876414-15.35828-15.35828s6.876414-15.35828 15.35828-15.358279zM408.172909 376.714032h105.460188c8.481866 0 15.35828 6.876414 15.35828 15.35828s-6.876414 15.35828-15.35828 15.35828h-105.460188c-8.481866 0-15.35828-6.876414-15.35828-15.35828s6.876414-15.35828 15.35828-15.35828zM204.419729 192.414674h105.460188c8.481866 0 15.35828 6.876414 15.35828 15.358279s-6.876414 15.35828-15.35828 15.35828h-105.460188c-8.481866 0-15.35828-6.876414-15.35828-15.35828s6.876414-15.35828 15.35828-15.358279zM408.172909 192.414674h105.460188c8.481866 0 15.35828 6.876414 15.35828 15.358279s-6.876414 15.35828-15.35828 15.35828h-105.460188c-8.481866 0-15.35828-6.876414-15.35828-15.35828s6.876414-15.35828 15.35828-15.358279zM681.55029 350.093014h105.460189c8.481866 0 15.35828 6.876414 15.35828 15.358279s-6.876414 15.35828-15.35828 15.35828h-105.460189c-8.481866 0-15.35828-6.876414-15.35828-15.35828s6.876414-15.35828 15.35828-15.358279zM681.55029 165.793655h105.460189c8.481866 0 15.35828 6.876414 15.35828 15.35828s-6.876414 15.35828-15.35828 15.35828h-105.460189c-8.481866 0-15.35828-6.876414-15.35828-15.35828s6.876414-15.35828 15.35828-15.35828z"  horiz-adv-x="1024" />

    
    <glyph glyph-name="icon-chushengriqi" unicode="&#58883;" d="M724.412784 669.646716c11.733229 0 21.24179 9.476839 21.24179 21.168112v84.628445c0 11.68411-9.507538 21.168112-21.24179 21.168112-11.731182 0-21.23872-9.482979-21.23872-21.168112v-84.628445c0-11.691273 9.507538-21.168112 21.23872-21.168112zM299.593356 669.646716c11.731182 0 21.24179 9.476839 21.24179 21.168112v84.628445c0 11.68411-9.509585 21.168112-21.24179 21.168112-11.729136 0-21.24179-9.482979-21.24179-21.168112v-84.628445c0-11.691273 9.512654-21.168112 21.24179-21.168112zM538.91193 80.705346V473.515756h-27.062356c-13.627369-15.770172-29.089525-29.348422-46.390563-40.71019-17.672498-11.004635-35.896558-19.252483-54.673204-24.758894v-34.107819c37.554314 11.004635 69.032236 30.256094 94.435813 57.769729v-351.003236h33.69031zM916.27758 368.127498c2.406816-9.05933 10.32209-15.873526 20.168342-15.873526 9.847276 0 17.762549 6.813173 20.166295 15.873526h1.446955V606.167962c0 70.009494-57.167001 126.957507-127.444601 126.957507H792.114722v-42.310641h38.499849c46.856168 0 84.96102-37.977963 84.961021-84.646866v-42.317804H108.420315v42.317804c0 46.668902 38.116109 84.646865 84.963067 84.646866h39.827077v42.310641h-39.827077c-70.276576 0-127.444601-56.949037-127.4446-126.957507v-507.813654c0-70.013587 57.167001-126.96467 127.4446-126.96467h637.232213c70.276576 0 127.444601 56.951083 127.4446 126.96467V255.726521h-0.744967c-0.981351 10.779507-9.79304 19.318998-20.869306 19.318998-11.731182 0-21.24179-9.469676-21.24179-21.151739 0-0.657986 0.317225-1.215688 0.372483-1.851161v-153.688311c0-46.682205-38.104853-84.637656-84.96102-84.637656H193.383382c-46.847981 0-84.963067 37.95545-84.963067 84.637656V521.529283H915.576615v-146.265248c-0.055259-0.644683-0.372483-1.193175-0.372483-1.851161 0-0.650823 0.317225-1.206478 0.372483-1.841951v-3.443425h0.700965zM663.342894 733.125469H361.986381v-42.310641h301.356513v42.310641z"  horiz-adv-x="1024" />

    
    <glyph glyph-name="year" unicode="&#58971;" d="M810.496 424.448H192c-9.728 0-17.92 8.192-17.92 17.92s8.192 17.92 17.92 17.92h618.496c9.728 0 17.92-8.192 17.92-17.92s-8.192-17.92-17.92-17.92z m39.936-433.664h-686.08c-51.712 0-94.208 42.496-94.208 94.208V591.36c0 51.712 42.496 94.208 94.208 94.208h117.76v-35.84h-117.76c-32.256 0-58.368-26.112-58.368-58.368v-506.368c0-32.256 26.112-58.368 58.368-58.368h686.08c32.256 0 58.368 26.112 58.368 58.368V591.36c0 32.256-26.112 58.368-58.368 58.368H723.968v35.84h126.464c51.712 0 94.208-42.496 94.208-94.208v-506.368c0-51.712-42.496-94.208-94.208-94.208zM382.976 695.808h238.592v-35.84H382.976z m-48.64-138.752h-6.656c-35.328 0-64 28.672-64 64V736.768c0 35.328 28.672 64 64 64h6.656c35.328 0 64-28.672 64-64v-116.224c0-34.816-28.672-63.488-64-63.488z m-6.656 207.872c-15.36 0-28.16-12.8-28.16-28.16v-115.712c0-15.36 12.8-28.16 28.16-28.16h6.656c15.36 0 28.16 12.8 28.16 27.648V736.768c0 15.36-12.8 28.16-28.16 28.16h-6.656z m346.112-207.872h-6.656c-35.328 0-64 28.672-64 64V736.768c0 35.328 28.672 64 64 64h6.656c35.328 0 64-28.672 64-64v-116.224c0-34.816-28.672-63.488-64-63.488z m-6.656 207.872c-15.36 0-28.16-12.8-28.16-28.16v-115.712c0-15.36 12.8-28.16 28.16-28.16h6.656c15.36 0 28.16 12.288 28.16 27.648V736.768c0 15.36-12.8 28.16-28.16 28.16h-6.656z"  horiz-adv-x="1024" />

    
    <glyph glyph-name="jober" unicode="&#58964;" d="M1002.382 563.963H673.536c-10.311 0-18.671 7.763-18.671 17.338s8.361 17.338 18.671 17.338h328.848c10.311 0 18.671-7.762 18.671-17.338s-8.362-17.338-18.673-17.338z m0-196.188H673.536c-10.311 0-18.671 7.762-18.671 17.337s8.361 17.338 18.671 17.338h328.848c10.311 0 18.671-7.762 18.671-17.338s-8.362-17.337-18.673-17.337z m0-196.19H837.96c-10.311 0-18.671 7.762-18.671 17.338s8.361 17.338 18.671 17.338h164.425c10.311 0 18.671-7.762 18.671-17.338s-8.359-17.338-18.671-17.338zM346.759 322.547c-61.101 0-118.546 22.096-161.751 62.214-43.205 40.121-66.999 93.462-66.999 150.202s23.794 110.08 66.999 150.201c43.206 40.118 100.65 62.213 161.751 62.213s118.545-22.094 161.751-62.213c43.206-40.122 66.999-93.462 66.999-150.201 0-56.739-23.793-110.08-66.999-150.202-43.205-40.118-100.649-62.214-161.751-62.214z m0 390.156c-105.542 0-191.408-79.733-191.408-177.739s85.866-177.74 191.408-177.74 191.408 79.735 191.408 177.74-85.865 177.739-191.408 177.739zM671.903 20.622c-10.311 0-18.671 7.762-18.671 17.338 0 156.923-137.483 284.588-306.471 284.588S40.288 194.882 40.288 37.96c0-9.575-8.359-17.338-18.671-17.338S2.946 28.384 2.946 37.96c0 43.093 9.094 84.906 27.028 124.277 17.317 38.02 42.105 72.161 73.675 101.476s68.337 52.333 109.28 68.415c42.399 16.653 87.427 25.095 133.834 25.095s91.434-8.444 133.834-25.095c40.943-16.081 77.71-39.099 109.279-68.415 31.57-29.315 56.357-63.456 73.675-101.476 17.934-39.372 27.027-81.185 27.027-124.277 0-9.575-8.359-17.338-18.671-17.338z"  horiz-adv-x="1024" />

    
    <glyph glyph-name="zhifeiji" unicode="&#58997;" d="M162.11968 324.22912l189.61408-98.3296 26.4448 37.38624-125.17376 64.92672 493.3376 320.07168-306.67264-416.06144-14.50496-20.49536v-212.92032h40.96v199.2192l324.47488 437.23264-50.94912-562.6624-204.43136 107.61728-19.97824-39.92576 268.2112-138.69056 78.42816 767.59552z"  horiz-adv-x="1024" />

    
    <glyph glyph-name="school" unicode="&#58953;" d="M981.333333-8.533333h-42.666666v426.666666c0 106.666667-85.333333 192-192 192h-85.333334c-12.8 0-21.333333-8.533333-21.333333-21.333333s8.533333-21.333333 21.333333-21.333333h85.333334c81.066667 0 149.333333-68.266667 149.333333-149.333334v-426.666666h-298.666667V648.533333c0 98.133333-76.8 170.666667-170.666666 170.666667H256c-93.866667 0-170.666667-76.8-170.666667-170.666667v-657.066666H42.666667c-12.8 0-21.333333-8.533333-21.333334-21.333334s8.533333-21.333333 21.333334-21.333333h938.666666c12.8 0 21.333333 8.533333 21.333334 21.333333s-8.533333 21.333333-21.333334 21.333334zM128 648.533333c0 72.533333 55.466667 128 128 128h170.666667c72.533333 0 128-55.466667 128-128v-657.066666H128V648.533333zM448 610.133333h-213.333333c-12.8 0-21.333333-8.533333-21.333334-21.333333s8.533333-25.6 21.333334-25.6h213.333333c12.8 0 21.333333 17.066667 21.333333 25.6s-8.533333 17.066667-21.333333 21.333333zM448 392.533333h-213.333333c-12.8 0-21.333333-8.533333-21.333334-21.333333s8.533333-21.333333 21.333334-21.333333h213.333333c12.8 0 21.333333 8.533333 21.333333 21.333333s-8.533333 21.333333-21.333333 21.333333zM448 179.2h-213.333333c-12.8 0-21.333333-8.533333-21.333334-21.333333s8.533333-21.333333 21.333334-21.333334h213.333333c12.8 0 21.333333 8.533333 21.333333 21.333334s-8.533333 21.333333-21.333333 21.333333zM661.333333 349.866667h128c12.8 0 21.333333 8.533333 21.333334 21.333333s-8.533333 21.333333-21.333334 21.333333h-128c-12.8 0-21.333333-8.533333-21.333333-21.333333s8.533333-21.333333 21.333333-21.333333zM661.333333 136.533333h128c12.8 0 21.333333 8.533333 21.333334 21.333334s-8.533333 21.333333-21.333334 21.333333h-128c-12.8 0-21.333333-8.533333-21.333333-21.333333s8.533333-21.333333 21.333333-21.333334z"  horiz-adv-x="1024" />

    
    <glyph glyph-name="Sex" unicode="&#58940;" d="M430.4 184c-152 0-275.2 123.2-275.2 275.2s123.2 275.2 275.2 275.2 275.2-123.2 275.2-275.2-123.2-275.2-275.2-275.2z m0 518.4c-134.4 0-243.2-108.8-243.2-243.2s108.8-243.2 243.2-243.2 243.2 108.8 243.2 243.2-108.8 243.2-243.2 243.2zM576 32H288c-9.6 0-16 6.4-16 16s6.4 16 16 16h288c9.6 0 16-6.4 16-16s-6.4-16-16-16zM432-112c-9.6 0-16 6.4-16 16V192c0 9.6 6.4 16 16 16s16-6.4 16-16v-288c0-9.6-6.4-16-16-16zM614.4 624c-4.8 0-8 1.6-11.2 4.8-6.4 6.4-6.4 16 0 22.4L768 816c6.4 6.4 16 6.4 22.4 0 6.4-6.4 6.4-16 0-22.4L625.6 628.8c-3.2-3.2-8-4.8-11.2-4.8zM784 592c-9.6 0-16 6.4-16 16V784H576c-9.6 0-16 6.4-16 16s6.4 16 16 16h208c9.6 0 16-6.4 16-16v-192c0-9.6-6.4-16-16-16z"  horiz-adv-x="1024" />

    
    <glyph glyph-name="school1" unicode="&#58888;" d="M485.46666667 739.168c14.5184 8.53333333 40.84693333 8.53333333 55.34186666 0l400.6112-235.36c6.64533333-3.8912 6.64533333-2.912 0-6.82666667L540.80853333 261.64266667000004c-14.496-8.50986667-40.84586667-8.50986667-55.34186666 0L84.85546667 497.0048c-6.64533333 3.8912-6.64533333 2.91306667 0 6.82666667L485.46666667 739.1466666700001zM61.80373333 543.06133333c-36.56746667-21.4816-36.61333333-63.80693333 0-85.31093333l400.61226667-235.36c28.7168-16.88533333 72.704-16.88533333 101.44426667 0L964.47146667 457.728c36.56853333 21.4816 36.61333333 63.78346667 0 85.31093333L563.86026667 778.42133333c-28.71786667 16.86186667-72.704 16.88426667-101.44426667 0L61.80266667 543.06133333zM781.152 140.94826666999995a738.64533333 738.64533333 0 0 0-66.14933333-33.45066667c-67.90293333-30.19733333-135.5552-48.24213333-197.74613334-48.24213333-62.21333333 0-129.8432 18.0448-197.74613333 48.24213333A738.64533333 738.64533333 0 0 0 238.93333333 149.41333333V387.75466667a22.7552 22.7552 0 0 1-45.51146666 0v-250.88a22.7552 22.7552 0 0 1 10.12693333-18.93333334 620.45333333 620.45333333 0 0 1 27.21493333-16.49706666c21.20853333-12.128 44.8288-24.23466667 70.2464-35.54453334 73.22773333-32.53973333 146.72853333-52.13226667 216.2464-52.13226666s142.99626667 19.56906667 216.224 52.10986666a783.88266667 783.88266667 0 0 1 70.2688 35.54453334 620.45333333 620.45333333 0 0 1 27.19253334 16.52053333 22.7552 22.7552 0 0 1 10.14933333 18.93226667v250.88a22.7552 22.7552 0 0 1-45.51146667 0v-238.31893334c-4.3232-2.64-9.14773333-5.46133333-14.42666666-8.48746666z m163.2032 360.58453333v-227.55626667a22.7552 22.7552 0 1 1 45.51146667 0V501.5328a22.7552 22.7552 0 0 1-45.51146667 0z"  horiz-adv-x="1024" />

    
    <glyph glyph-name="resume" unicode="&#58958;" d="M50.2 386.8c0 112.1-0.2 224.2 0.1 336.3 0.2 97.1 57 155.4 153.7 155.6 205 0.6 409.9 0.5 614.9 0 95.4-0.2 154.1-59.9 154.3-155.7 0.2-132.2 0.1-264.4-0.1-396.5 0-8.3 1.4-18.9-3-24.2-7.1-8.8-19.3-20.5-27.7-19.3-10.1 1.4-19.9 14-26.9 23.9-3.6 5.1-1 14.6-1 22.1V723c0 64.6-34.1 98.6-99.3 98.7-203.3 0.1-406.6 0.2-609.9 0-62.6-0.1-96.5-33.9-96.5-95.9-0.1-226.7-0.1-453.4 0-680.1 0-63.9 33.4-96.8 97.8-96.9 84.5-0.1 169 0 253.5-0.1 27.2 0 41.5-10.4 41.2-29.3-0.3-18.3-15.3-29-42.1-29-86.2-0.1-172.3-0.5-258.5 0.1-89.1 0.6-149.3 60.4-150 150-1.1 115.4-0.5 230.9-0.5 346.3z m0 0M712.8-37.5c-4.6-6.7-8.7-12.6-14.6-21.1H735c-5.8 7.5-10.6 13.6-16.7 21.6 12.3 12.8 24.8 26 37.4 39.1 53.5 55.4 106.8 110.9 160.5 166 17.7 18.2 35 20.2 47.7 5.7 15-17 8.1-32.1-5.6-46.2-71.6-73.9-143-148.1-214.7-221.9-18.7-19.3-31.4-19.7-51.9-2.1-26 22.4-51.4 45.5-77.2 68-15.5 13.5-21.5 29.1-6.4 45.4 14.1 15.2 30.4 10.9 44.6-1.3 20.5-17.5 40.2-35.5 60.1-53.2z m0 0M511.5 593.3c-61.8 0-123.5-0.1-185.3 0.1-27.4 0.1-41 10.4-39.6 30.3 1.7 24.4 18.8 28.2 39.1 28.1 123.5-0.2 247.1-0.1 370.6-0.1 26.6 0 42.3-11.2 40.2-29.9-2.6-23.1-19.1-28.6-39.7-28.6-61.7 0.2-123.5 0.1-185.3 0.1z m0 0M509.9 359.9c-61.9 0-123.8-0.2-185.7 0.1-26.3 0.1-38.7 9.8-37.7 29.2 1.3 23.2 17.2 27.8 36.8 27.8 125.4-0.1 250.9-0.2 376.3 0.1 20.2 0 35-6.4 37.1-28.3 1.6-17.9-13.3-28.8-38.6-28.9-62.8-0.1-125.5 0-188.2 0z m0 0M392.1 125.29999999999995h-72.5c-19.4 0-32.7 8-32.9 28.9-0.2 21.3 14.3 29.1 33 29.2 49.2 0.5 98.3 0.4 147.5 0.1 19.1-0.1 33.5-9.4 33.4-29.4-0.1-19.8-13.6-29-33.4-28.9-25 0.2-50 0.1-75.1 0.1z m0 0M659.9 39.60000000000002h36.6v-21.5h-36.6z"  horiz-adv-x="1024" />

    
    <glyph glyph-name="Salarytreasure" unicode="&#59010;" d="M618.75 242.125c15.25 0 27.625 12.375 27.625 27.625 0 15.25-12.375 27.625-27.625 27.625h-83.875v1.125l102.5 107c6.75 7.125 9.375 17.25 6.625 26.75-2.75 9.5-10.25 16.75-19.875 19.125-9.5 2.375-19.625-0.5-26.375-7.625l-87.75-92.25-93 92.75c-5.125 5.125-12.25 8.125-19.5 8.125-7.375 0-14.375-2.875-19.5-8.125-10.75-10.875-11.375-28.375-0.5-39.125l102.25-102.5v-5.125h-81.875c-15.25 0-27.625-12.375-27.625-27.625 0-15.25 12.375-27.625 27.625-27.625H479.75v-55.25h-81.875c-15.25 0-27.625-12.375-27.625-27.625 0-15.25 12.375-27.625 27.625-27.625H479.75v-82.25c0-15.25 12.375-27.625 27.625-27.625s27.625 12.375 27.625 27.625v82.25h83.875c15.25 0 27.625 12.375 27.625 27.625 0 15.25-12.375 27.625-27.625 27.625h-83.875V242.25h83.75v-0.125zM512.875-128c-76.5 0-143.375 8.125-198.875 24.25-56.75 16.5-104.5 40.75-141.75 72.375-37.375 31.375-66.25 71.625-83.875 117.125C71 130.25 62.25 181.125 62.25 237c0 33.75 3.875 66 11.625 95.625 7.375 28.625 17.75 56.375 31 82.75 12.875 25.25 27.375 48.5 43.125 69.25 15 19.75 31.375 38.5 48.875 56.125 40.375 40.375 73.875 62.375 121.75 89.125 4.375 2.375 9.25 3.625 14.125 3.625l363.375 1.125h0.125c5 0 10-1.25 14.375-3.75 49.875-28.125 77-51.5 115.625-90l0.375-0.375c16-16.5 32.125-35.125 48.125-55.25 17.125-21.75 31.875-45.125 44.125-70 12.875-26.375 23.125-53.875 30.75-82.125 8-29.75 12.125-62.125 12.125-95.875 0-55.875-8.75-106.625-26-151.125-17.625-45.5-46.5-85.875-83.875-117.125-37.25-31.5-84.75-55.875-141.25-72.375-55.5-16.375-121.875-24.625-197.75-24.625m-172.5 702.875c-40.625-22.875-68.375-41.75-102.375-75.75-15-15-29.75-31.875-43.75-50.25-14.25-18.875-26.75-39-37.375-60.25-11.375-22.625-20.25-46.375-26.5-70.875-6.375-24.875-9.75-52.125-9.75-81 0-48.5 7.375-92.25 22.125-130 14.125-36.375 37.125-68.625 67.125-93.625 31-26.25 71.5-46.625 120.25-60.875 50.25-14.625 111.625-22 182.625-22 70.375 0 131.25 7.375 181.25 22 48.625 14.125 88.875 34.625 119.875 60.875 29.875 25 53 57.25 67.125 93.625 14.625 37.75 22.125 81.375 22.125 130 0 28.75-3.375 55.875-10.125 80.625-6.5 24.625-15.5 48.5-26.75 71.375-10.375 21.125-22.875 41-37.375 59.5-14 17.625-28.75 34.625-44.25 50.875-33.625 33.5-56.375 53.25-96.25 76.5l-348-0.75z m22.5 79.5c-26 0-38.625 11.375-50.25 24.125-10.125 10.625-20.25 21.25-30.5 31.875-11.875 12.25-18 18-21 20.625-7.375 6.5-13.625 14.125-18.5 22.625-4.75 8.25-8.375 17.125-10.625 26.375-5.625 23.25 1 47.75 17.5 64.875 10.625 10.625 22.25 16 34.25 16 1.75 0 3.625-0.125 5.375-0.375h0.125c7.25-1 14.625-3.375 22.625-7.125 5.125-2.375 11.125-5 17.875-7.875 2.125-0.875 7.125-2.375 16.5-2.375 2 0 3.25 0.25 3.625 0.375 4.875 4.625 9.5 9.625 14 15.125 6 7.5 12.875 14.75 20.25 21.375C395.75 890.75 410.75 896 428.625 896c22.625 0 36.75-8.875 44.625-16.25 7-6.625 13.5-13.875 19.375-21.625 3.5-4.625 7.625-8.75 12.25-12.5 0.125-0.125 1.875-1.375 8-1.375 1.125-0.125 2.125 0.125 3.25 0.375 4.875 4.375 9.75 9.375 14.5 14.875 6.375 7.5 13.625 14.625 21.25 21.125C563.625 890.875 578.625 896 596.125 896c22.25 0 36.5-8.625 44.5-15.75 7.625-6.875 14.5-14.25 20.375-22.125 3.875-5.125 8.25-10 12.75-14.25 0.375-0.125 1.75-0.5 4.625-0.5 9.25 0 13.75 1.375 15.75 2.25 6.5 2.875 12.5 5.5 17.75 8 8 3.75 15.375 6 22.625 7.125h0.125c1.75 0.25 3.625 0.375 5.375 0.375 12 0 23.5-5.375 34.25-16 8.875-9.25 14.875-20.75 17.375-33.25 1.875-10.125 1.875-20.25 0-30.375-2-10.125-5.875-19.875-11.375-28.625-4.625-7.375-10-14.25-16.125-20.375-0.5-0.5-0.875-0.875-1.375-1.25-3-2.625-9-8.25-21-20.625-9.75-10-19.75-20.5-30.75-32.125l-0.125-0.125c-7.5-7.875-14-14.625-25.25-18.75-9-3.25-17.625-3.75-33.375-4.5H374.25c-4.25-0.625-8-0.75-11.375-0.75m-2.125 58.625c0.5 0 1.125-0.125 2.25-0.125 2 0 4.375 0.125 7.5 0.375 0.875 0.125 1.75 0.125 2.625 0.125h277c5.625 0.25 11.25 0.625 14.375 0.875l4.125 4.25c11.125 11.75 21.375 22.5 31.25 32.625 7.625 8 15.5 15.625 23.5 23.125 2.75 3 5.25 6.125 7.375 9.625 1.75 2.75 2.875 5.5 3.375 8.25 0.5 2.375 0.5 4.75 0.25 7.125-5-2.375-10.625-4.875-16.75-7.5-11-4.75-23.75-7-39-7-22.625 0-36.75 8.875-44.625 16.375-6.875 6.5-13.375 13.75-19.375 21.5-3.875 5-8.25 9.75-13 14 0 0-1.375 0.75-5.375 0.75-3.125 0-5.5-0.5-6.5-1.25-5.375-4.625-10.25-9.5-14.875-14.875-6.375-7.375-13.125-14.25-19.875-20.375-11.125-10-25.75-15.25-42.125-15.25-18 0-33 4.875-44.75 14.375-8.25 6.625-15.5 14.125-22 22.5-3.875 5.125-8.125 9.875-12.75 14.25-1.5 0.5-3.125 0.625-4.75 0.625-3.75 0-5.375-0.625-5.5-0.875-5-4.5-9.625-9.375-13.875-14.625-6.125-7.5-12.625-14.625-19.375-21-7.875-7.375-21.75-16.25-43.625-16.25-15.125 0-27.875 2.25-39 6.875-6.75 2.875-12.75 5.5-18.25 8v-0.125c-0.5-1.875-0.5-3.875 0-5.75 0.875-3.75 2.25-7.25 4.25-10.75 1.75-3 3.875-5.625 6.375-7.875 5.625-5 13.625-12.75 24.5-23.875 10.625-11 21.25-22 31.75-33.125 2.625-2.875 4.125-4.375 4.875-5"  horiz-adv-x="1024" />

    
    <glyph glyph-name="incumbencyHr" unicode="&#59543;" d="M768.1 512c0 142.2-113.8 256-256 256S256 654.2 256 512c0-96.7 51.2-179.2 130.9-221.9-108.1-42.7-190.6-136.5-213.3-256-2.8-14.2 5.7-31.3 22.8-34.1h5.7c14.2 0 25.6 8.5 28.4 22.8C256 156.4 372.7 253.2 509.2 256h5.7c139.4 0 253.2 113.8 253.2 256zM514.9 312.9h-8.5C398.3 315.7 313 403.9 313 512c0 110.9 88.2 199.1 199.1 199.1S711.2 622.9 711.2 512c0-108.1-88.2-196.3-196.3-199.1zM850.5 227.9c-12.3 12.3-37.3 12.3-49.8 0L687.4 114.7l-49.8 49.8c-12.5 12.5-37.3 12.5-49.8 0s-12.5-37.3 0-49.8l74.8-74.6c12.5-12.5 37.3-12.5 49.8 0l138.2 138c12.4 12.5 12.4 37.3-0.1 49.8z"  horiz-adv-x="1024" />

    
    <glyph glyph-name="salary" unicode="&#58905;" d="M921.019581 558.491103c-22.424732 53.018517-54.521754 100.627838-95.400791 141.506874-40.879036 40.878013-88.488357 72.976058-141.505851 95.400791-54.903447 23.221888-113.211435 34.997072-173.302021 34.997072s-118.398574-11.774161-173.302021-34.997072c-53.018517-22.424732-100.626815-54.522778-141.505851-95.400791-40.878013-40.879036-72.976058-88.488357-95.40079-141.506874-23.221888-54.903447-34.997072-113.210411-34.997072-173.302021s11.774161-118.39755 34.997072-173.300998c22.424732-53.018517 54.522778-100.627838 95.40079-141.505851 40.879036-40.878013 88.488357-72.976058 141.505851-95.40079 54.903447-23.221888 113.210411-34.997072 173.302021-34.997072s118.398574 11.775184 173.302021 34.997072c53.018517 22.423709 100.626815 54.521754 141.505851 95.40079 40.878013 40.878013 72.975035 88.488357 95.400791 141.505851 23.221888 54.903447 34.997072 113.210411 34.997072 173.300998s-11.775184 118.398574-34.997072 173.302021z m-47.123251-326.672084c-19.846-46.919613-48.260144-89.061408-84.45653-125.257796s-78.339206-64.611553-125.257795-84.45653c-48.563042-20.539802-100.164281-30.955013-153.371087-30.955012-53.206806 0-104.808044 10.41521-153.370063 30.955012-46.919613 19.846-89.061408 48.260144-125.257795 84.45653s-64.611553 78.339206-84.456531 125.257796c-20.539802 48.563042-30.955013 100.164281-30.955012 153.370063 0 53.206806 10.41521 104.808044 30.955012 153.370063 19.844977 46.919613 48.261167 89.062432 84.456531 125.258818 36.196387 36.196387 78.339206 64.611553 125.257795 84.456531 48.563042 20.539802 100.164281 30.955013 153.370063 30.955012 53.206806 0 104.808044-10.41521 153.371087-30.955012 46.919613-19.844977 89.061408-48.261167 125.257795-84.456531 36.196387-36.196387 64.611553-78.339206 84.45653-125.258818 20.539802-48.563042 30.955013-100.164281 30.955013-153.370063 0-53.205782-10.41521-104.807021-30.955013-153.370063zM536.561395 417.163307v-101.147678h168.299078c14.128789 0 25.582655-11.453866 25.582655-25.582655s-11.453866-25.582655-25.582655-25.582655H536.561395v-147.873885c0-14.128789-11.453866-25.582655-25.582655-25.582655s-25.582655 11.453866-25.582655 25.582655V264.850319H316.761364c-14.128789 0-25.582655 11.453866-25.582655 25.582655s11.453866 25.582655 25.582655 25.582655h168.634721v101.147678H316.761364c-14.128789 0-25.582655 11.453866-25.582655 25.582655s11.453866 25.582655 25.582655 25.582655h144.635121L340.335269 638.576069c-8.187473 11.514241-5.491061 27.486004 6.02318 35.674501 11.514241 8.188496 27.486004 5.490038 35.674501-6.02318l130.256646-183.178973 130.256646 183.178973c8.187473 11.514241 24.160259 14.211676 35.673477 6.02318 11.515265-8.187473 14.2127-24.159236 6.024204-35.674501l-121.061217-170.247452h141.676743c14.128789 0 25.582655-11.453866 25.582655-25.582655s-11.453866-25.582655-25.582655-25.582655H536.561395z"  horiz-adv-x="1024" />

    
    <glyph glyph-name="range" unicode="&#59498;" d="M208.5888 530.944h-1.4336c-62.976 0-114.0736-34.2016-114.0736-76.5952V51.2c0-42.2912 50.9952-76.5952 114.0736-76.5952h1.4336c62.976 0 114.0736 34.2016 114.0736 76.5952V454.3488c0 42.2912-51.0976 76.5952-114.0736 76.5952zM271.6672 51.2c0-23.3472-28.2624-42.3936-63.0784-42.3936h-1.4336c-34.816 0-63.0784 18.944-63.0784 42.3936V454.3488c0 23.3472 28.2624 42.3936 63.0784 42.3936h1.4336c34.816 0 63.0784-18.944 63.0784-42.3936V51.2z m518.7584 619.4176c-7.168 0-12.9024-5.632-12.9024-12.5952v-50.3808c0-6.9632 5.7344-12.5952 12.9024-12.5952s12.9024 5.632 12.9024 12.5952v50.3808c0 6.9632-5.8368 12.5952-12.9024 12.5952z m0-115.6096c-7.168 0-12.9024-5.632-12.9024-12.5952v-5.2224c0-6.9632 5.7344-12.5952 12.9024-12.5952s12.9024 5.632 12.9024 12.5952v5.2224c0 6.9632-5.8368 12.5952-12.9024 12.5952zM520.6016 694.5792H519.168c-62.976 0-114.0736-44.3392-114.0736-99.0208V73.728c0-54.6816 50.9952-99.0208 114.0736-99.0208h1.4336c62.976 0 114.0736 44.4416 114.0736 99.0208V595.5584c-0.1024 54.5792-51.0976 99.0208-114.0736 99.0208zM583.5776 73.728c0-30.208-28.2624-54.784-63.0784-54.784h-1.4336c-34.816 0-63.0784 24.4736-63.0784 54.784V595.5584c0 30.208 28.2624 54.784 63.0784 54.784h1.4336c34.816 0 63.0784-24.4736 63.0784-54.784V73.728z m232.2432 718.9504h-1.4336c-62.976 0-114.0736-50.3808-114.0736-112.5376v-592.896c0-62.1568 50.9952-112.5376 114.0736-112.5376h1.4336c62.976 0 114.0736 50.3808 114.0736 112.5376v592.896c-0.1024 62.1568-51.0976 112.5376-114.0736 112.5376z m63.0784-705.4336c0-34.4064-28.2624-62.2592-63.0784-62.2592h-1.4336c-34.816 0-63.0784 27.8528-63.0784 62.2592v592.896c0 34.4064 28.2624 62.2592 63.0784 62.2592h1.4336c34.816 0 63.0784-27.8528 63.0784-62.2592v-592.896z m0 0"  horiz-adv-x="1024" />

    
    <glyph glyph-name="edit" unicode="&#58912;" d="M894.943311-128h-787.692308A108.386462 108.386462 0 0 0 0.006695-18.707691999999952V785.368615A108.307692 108.307692 0 0 0 107.211618 894.779077h418.028308l93.853539 0.787692a30.011077 30.011077 0 0 0 29.459692-30.089846 31.507692 31.507692 0 0 0-29.459692-30.089846H117.766695a52.578462 52.578462 0 0 1-59.076923-60.219077v-782.729846a52.499692 52.499692 0 0 1 59.076923-60.219077h766.385231a52.578462 52.578462 0 0 1 59.076923 60.219077V564.420923a29.538462 29.538462 0 1 0 59.076923 0v-582.892308A108.386462 108.386462 0 0 0 894.943311-128m-494.985846 332.603077a35.170462 35.170462 0 0 0-50.569847 0 36.942769 36.942769 0 0 0 0 51.554461L961.975926 884.972308a35.170462 35.170462 0 0 0 50.569846 0 36.864 36.864 0 0 0 0-51.515077L399.957465 204.60307699999998"  horiz-adv-x="1024" />

    
    <glyph glyph-name="add" unicode="&#58968;" d="M704.232727 416.023273h-160.116363V576a32.116364 32.116364 0 0 1-64.232728 0v-159.976727H319.767273a32.023273 32.023273 0 0 1 0-64h160.116363v-160.023273a32.116364 32.116364 0 0 1 64.232728 0v160.023273h160.116363a30.021818 30.021818 0 0 1 31.650909 31.976727 31.837091 31.837091 0 0 1-31.650909 32.023273zM512 896a512 512 0 1 1 512-512A513.489455 513.489455 0 0 1 512 896z m0-960A448 448 0 1 0 959.767273 384 449.210182 449.210182 0 0 0 512-64z m0 0"  horiz-adv-x="1024" />

    
    <glyph glyph-name="name" unicode="&#58907;" d="M736.619 557.453c0 130.505-105.358 236.295-235.298 236.295-129.943 0-235.283-105.79-235.283-236.295 0-130.506 105.34-236.295 235.283-236.295 129.94 0 235.298 105.789 235.298 236.295z m-429.66 0c0 107.814 87.016 195.205 194.362 195.205 107.362 0 194.397-87.391 194.397-195.205 0-107.813-87.035-195.221-194.397-195.221-107.346 0-194.362 87.409-194.362 195.221z m0 0M102.351 12.936v-20.557h818.418v20.557c0 184.482-189.356 349.297-409.218 349.297-13.229 0-26.382-0.525-39.423-1.574-11.261-0.938 18.062-10.83 18.961-22.146 11.974 0.973 8.338-17.354 20.462-17.354 198.462 0 368.297-147.836 368.297-308.223l20.442 20.531H122.793l20.48-20.531c0 109.121 68.577 208.879 179.07 264.414 10.116 5.1 14.203 17.428 9.144 27.582-5.059 10.139-17.352 14.26-27.451 9.182-123.702-62.188-201.685-175.641-201.685-301.178z m0 0"  horiz-adv-x="1024" />

    


  </font>
</defs>
</svg>
